<svg class="svg-icon" style="width: 1em; height: 1em;vertical-align: middle;fill: white;overflow: hidden;" viewBox="0 0 1024 1024" version="1.1" xmlns="http://www.w3.org/2000/svg"><path d="M736.6 836.2H286.4c-25.4 0-46-20.6-46-46V230.6c0-25.4 20.6-46 46-46h450.1c25.4 0 46 20.6 46 46v559.6c0.1 25.4-20.6 46-45.9 46zM286.4 216.6c-7.7 0-14 6.3-14 14v559.6c0 7.7 6.3 14 14 14h450.1c7.7 0 14-6.3 14-14V230.6c0-7.7-6.3-14-14-14H286.4z" fill="white" /><path d="M340.2 489.7h38.9v40.9h-38.9zM423.1 490.1h266.1v40H423.1zM340.2 362.4h38.9v40.9h-38.9zM423.1 362.8h266.1v40H423.1zM340.2 617h38.9v40.9h-38.9zM423.1 617.4h266.1v40H423.1z" fill="white" /></svg>