<svg class="svg-icon" style="width: 1em; height: 1em;vertical-align: middle;fill: currentColor;overflow: hidden;" viewBox="0 0 1024 1024" version="1.1" xmlns="http://www.w3.org/2000/svg"><path d="M809.6 265.6C761.6 144 643.2 64 512 64s-249.6 80-297.6 201.6C105.6 297.6 32 396.8 32 512v32c0 124.8 99.2 224 224 224h204.8V659.2c0-28.8 22.4-51.2 51.2-51.2s51.2 22.4 51.2 51.2V768H768c124.8 0 224-99.2 224-224v-32c0-115.2-73.6-214.4-182.4-246.4z"  /><path d="M592 803.2l-48 48V672c0-19.2-12.8-32-32-32s-32 12.8-32 32v179.2l-48-48c-12.8-12.8-32-12.8-44.8 0-12.8 12.8-12.8 32 0 44.8l102.4 102.4c3.2 3.2 6.4 6.4 9.6 6.4 3.2 0 6.4 3.2 12.8 3.2 3.2 0 9.6 0 12.8-3.2 3.2-3.2 6.4-3.2 9.6-6.4L636.8 848c12.8-12.8 12.8-32 0-44.8-9.6-12.8-32-12.8-44.8 0z"  /></svg>