<svg class="svg-icon" style="width: 1em; height: 1em;vertical-align: middle;fill: currentColor;overflow: hidden;" viewBox="0 0 1024 1024" version="1.1" xmlns="http://www.w3.org/2000/svg"><path d="M809.6 265.6C761.6 144 643.2 64 512 64s-249.6 80-297.6 201.6C105.6 297.6 32 396.8 32 512v32c0 124.8 99.2 192 224 192h73.6c-9.6-16-6.4-35.2 6.4-51.2l144-144c3.2-3.2 9.6-6.4 12.8-9.6 9.6-3.2 22.4-3.2 32 0 6.4 3.2 9.6 6.4 12.8 9.6l144 144c12.8 12.8 16 35.2 6.4 51.2h80c124.8 0 224-67.2 224-192v-32c0-115.2-73.6-214.4-182.4-246.4z"  /><path d="M534.4 553.6c-3.2-3.2-6.4-6.4-9.6-6.4-6.4-3.2-16-3.2-25.6 0-3.2 3.2-6.4 3.2-9.6 6.4L355.2 688c-12.8 12.8-12.8 32 0 44.8 12.8 12.8 32 12.8 44.8 0l80-80V928c0 19.2 12.8 32 32 32s32-12.8 32-32V652.8l80 80c12.8 12.8 32 12.8 44.8 0 12.8-12.8 12.8-32 0-44.8L534.4 553.6z"  /></svg>