<svg class="svg-icon" style="width: 1em; height: 1em;vertical-align: middle;fill: currentColor;overflow: hidden;" viewBox="0 0 1024 1024" version="1.1" xmlns="http://www.w3.org/2000/svg"><path d="M848.40394 0 178.152232 0c-56.4635 0-102.399104 45.947119-102.399104 102.400384l0 893.671076c0 15.420188 12.500677 27.927261 27.925982 27.927261 1.564664 0 3.089667-0.1612 4.580127-0.406838 1.568502 0.267387 3.154914 0.406838 4.747724 0.406838 6.045 0 12.137337-1.963825 17.263753-5.982311l114.98166-90.562418 114.980381 90.562418c10.13513 7.961489 24.410286 7.961489 34.564607 0l119.307194-93.962971 115.636695 91.072885c10.145365 7.962768 24.416683 7.962768 34.564607 0l114.889546-90.490774 117.088775 92.216637c5.483359 4.317857 12.058016 6.234346 18.506016 5.947768 2.561289 0.772737 5.270984 1.200044 8.084308 1.200044 15.430423 0 27.927261-12.508353 27.927261-27.927261L950.801765 102.399104C950.804323 45.943281 904.868719 0 848.40394 0zM894.95236 944.690877l-98.472733-77.544878c-10.146645-7.964048-24.420521-7.964048-34.565887 0l-114.890825 90.488215-115.635416-91.072885c-10.146645-7.962768-24.417963-7.962768-34.563328 0l-119.308473 93.96425-114.98166-90.562418c-10.145365-7.964048-24.417963-7.964048-34.563328 0l-96.36306 75.88938L131.60765 102.399104c0-25.67174 20.881797-46.544582 46.544582-46.544582l670.252987 0c25.664064 0 46.544582 20.872842 46.544582 46.544582L894.949801 944.690877z"  /><path d="M750.888172 317.535863 262.876907 317.535863c-9.381584 0-16.984851 7.604546-16.984851 16.984851l0 27.438544c0 9.381584 7.604546 16.984851 16.984851 16.984851l488.009985 0c9.380305 0 16.984851-7.604546 16.984851-16.984851l0-27.438544C767.873023 325.140409 760.268477 317.535863 750.888172 317.535863z"  /><path d="M262.876907 215.186654 614.349209 215.186654c9.380305 0 16.984851-7.604546 16.984851-16.984851l0-27.438544c0-9.381584-7.604546-16.984851-16.984851-16.984851L262.876907 153.778407c-9.381584 0-16.984851 7.604546-16.984851 16.984851l0 27.438544C245.892056 207.582107 253.496602 215.186654 262.876907 215.186654z"  /><path d="M750.888172 481.294598 262.876907 481.294598c-9.381584 0-16.984851 7.604546-16.984851 16.984851l0 27.438544c0 9.381584 7.604546 16.984851 16.984851 16.984851l488.009985 0c9.380305 0 16.984851-7.603267 16.984851-16.984851l0-27.438544C767.873023 488.899144 760.268477 481.294598 750.888172 481.294598z"  /><path d="M750.888172 645.053332 262.876907 645.053332c-9.381584 0-16.984851 7.603267-16.984851 16.984851l0 27.438544c0 9.381584 7.604546 16.984851 16.984851 16.984851l488.009985 0c9.380305 0 16.984851-7.603267 16.984851-16.984851l0-27.438544C767.873023 652.656599 760.268477 645.053332 750.888172 645.053332z"  /></svg>