<svg class="svg-icon" style="width: 1.0029296875em; height: 1em;vertical-align: middle;fill: currentColor;overflow: hidden;" viewBox="0 0 1027 1024" version="1.1" xmlns="http://www.w3.org/2000/svg"><path d="M1024 651.946667l-102.4-102.4c-6.826667-6.826667-17.066667-6.826667-23.893333 0l-341.333334 341.333333c-3.413333 3.413333-3.413333 6.826667-3.413333 13.653333v102.4c0 10.24 6.826667 17.066667 17.066667 17.066667h102.4c3.413333 0 10.24-3.413333 13.653333-3.413333l341.333333-341.333334c0-6.826667 0-20.48-3.413333-27.306666z m-361.813333 337.92h-78.506667v-78.506667l228.693333-228.693333 78.506667 78.506666-228.693333 228.693334z m252.586666-256l-78.506666-78.506667 68.266666-68.266667 78.506667 78.506667-68.266667 68.266667zM395.946667 307.2c-10.24 0-17.066667 6.826667-17.066667 17.066667v218.453333c-13.653333-10.24-30.72-13.653333-51.2-13.653333-47.786667 0-85.333333 30.72-85.333333 68.266666s37.546667 68.266667 85.333333 68.266667 85.333333-30.72 85.333333-68.266667V341.333333h51.2c10.24 0 17.066667-6.826667 17.066667-17.066666s-6.826667-17.066667-17.066667-17.066667h-68.266666z m-68.266667 324.266667c-27.306667 0-51.2-17.066667-51.2-34.133334s23.893333-34.133333 51.2-34.133333 51.2 17.066667 51.2 34.133333-23.893333 34.133333-51.2 34.133334z"  /><path d="M498.346667 887.466667H37.546667v-614.4h221.866666c10.24 0 17.066667-6.826667 17.066667-17.066667V34.133333h443.733333v631.466667c0 10.24 6.826667 17.066667 17.066667 17.066667s17.066667-6.826667 17.066667-17.066667v-648.533333c0-10.24-6.826667-17.066667-17.066667-17.066667h-484.693333-3.413334s-3.413333 0-3.413333 3.413333l-238.933333 238.933334s0 3.413333-3.413334 3.413333l-3.413333 3.413333v655.36c0 10.24 6.826667 17.066667 17.066667 17.066667h477.866666c10.24 0 17.066667-6.826667 17.066667-17.066667s-3.413333-17.066667-13.653333-17.066666z m-436.906667-648.533334l180.906667-180.906666v180.906666h-180.906667z"  /></svg>