<svg class="svg-icon" style="width: 1em; height: 1em;vertical-align: middle;fill: currentColor;overflow: hidden;" viewBox="0 0 1024 1024" version="1.1" xmlns="http://www.w3.org/2000/svg"><path d="M719.521595 234.737542l68.039867-68.039868c6.803987-6.803987 6.803987-13.607973 3.401993-20.41196-54.431894-91.853821-146.285714-142.883721-251.747508-142.883721s-197.315615 51.0299-251.747508 142.883721c-3.401993 6.803987-3.401993 17.009967 3.401993 23.813954l68.039867 51.0299c3.401993 0 3.401993 3.401993 6.803987 3.401993-6.803987 20.41196-13.607973 44.225914-13.607974 68.039868v272.159468c0 102.059801 85.049834 187.109635 187.109635 187.109635s187.109635-85.049834 187.109634-187.109635v-272.159468c-3.401993-23.813953-3.401993-40.82392-6.803986-57.833887-3.401993 0 0 0 0 0z m-343.601329-44.225914l-54.431894-40.82392c51.0299-74.843854 125.873754-115.667774 214.325581-115.667774 88.451827 0 166.697674 40.82392 217.727575 115.667774l-51.0299 51.0299c-30.61794-57.833887-95.255814-98.657807-166.697675-98.657807-64.637874 0-125.873754 37.421927-159.893687 88.451827 3.401993 0 3.401993 0 0 0z m6.803986 183.707641h51.029901c10.20598 0 17.009967-6.803987 17.009967-17.009967s-6.803987-17.009967-17.009967-17.009966h-51.029901v-34.019934h51.029901c10.20598 0 17.009967-6.803987 17.009967-17.009967s-6.803987-17.009967-17.009967-17.009967h-47.627907c10.20598-74.843854 71.44186-136.079734 149.687707-136.079734 78.245847 0 142.883721 61.23588 149.687708 136.079734h-47.627907c-10.20598 0-17.009967 6.803987-17.009967 17.009967s6.803987 17.009967 17.009967 17.009967h51.0299v34.019934h-51.0299c-10.20598 0-17.009967 6.803987-17.009967 17.009966s6.803987 17.009967 17.009967 17.009967h51.0299v68.039867h-306.179402v-68.039867z m153.089701 340.199336c-78.245847 0-142.883721-61.23588-149.687707-136.079735h47.627907c10.20598 0 17.009967-6.803987 17.009967-17.009966s-6.803987-17.009967-17.009967-17.009967h-51.029901v-68.039867h306.179402v68.039867h-51.0299c-10.20598 0-17.009967 6.803987-17.009967 17.009967s6.803987 17.009967 17.009967 17.009966h47.627907c-6.803987 74.843854-68.039867 136.079734-149.687708 136.079735zM365.714286 782.458472c-10.20598 0-17.009967 6.803987-17.009967 17.009967v146.285714l-105.461794-156.491695c-3.401993-6.803987-10.20598-10.20598-20.41196-6.803986-6.803987 3.401993-13.607973 10.20598-13.607974 17.009967v204.119601c0 10.20598 6.803987 17.009967 17.009967 17.009967s17.009967-6.803987 17.009967-17.009967v-146.285714l105.461794 156.491694c3.401993 3.401993 10.20598 6.803987 13.607973 6.803987h3.401994c6.803987-3.401993 13.607973-10.20598 13.607973-17.009967v-204.119601c3.401993-10.20598-3.401993-17.009967-13.607973-17.009967zM620.863787 792.664452c-6.803987-13.607973-27.215947-13.607973-30.61794 0l-85.049834 204.119601c-3.401993 10.20598 0 17.009967 10.20598 23.813954 10.20598 3.401993 17.009967 0 23.813954-10.20598l23.813953-57.833887h91.853821l23.813953 57.833887c3.401993 6.803987 10.20598 10.20598 17.009967 10.20598h6.803987c10.20598-3.401993 13.607973-13.607973 10.20598-23.813954l-91.853821-204.119601z m-47.627907 125.873754l30.617941-74.843854 30.61794 74.843854h-61.235881zM773.953488 782.458472c-10.20598 0-17.009967 6.803987-17.009966 17.009967v204.119601c0 10.20598 6.803987 17.009967 17.009966 17.009967s17.009967-6.803987 17.009967-17.009967v-204.119601c0-10.20598-6.803987-17.009967-17.009967-17.009967zM930.445183 935.548173c27.215947 0 81.647841-3.401993 81.64784-68.039867 0-54.431894-44.225914-85.049834-85.049834-85.049834h-51.0299c-10.20598 0-17.009967 6.803987-17.009967 17.009967v207.521594c0 10.20598 6.803987 17.009967 17.009967 17.009967s17.009967-6.803987 17.009967-17.009967V952.55814l91.85382 64.637873c3.401993 3.401993 6.803987 3.401993 10.20598 3.401994 6.803987 0 10.20598-3.401993 13.607974-6.803987 6.803987-6.803987 3.401993-17.009967-3.401993-23.813954l-74.843854-54.431893z m-37.421927-34.019934V816.478405h34.019933c6.803987 0 51.0299 0 51.029901 51.029901 0 30.61794-17.009967 34.019934-51.029901 34.019933h-34.019933zM76.54485 782.458472c-37.421927 0-68.039867 30.61794-68.039867 68.039867v102.059801c0 37.421927 30.61794 68.039867 68.039867 68.039867s68.039867-30.61794 68.039868-68.039867v-102.059801c0-37.421927-27.215947-68.039867-68.039868-68.039867z m34.019934 170.099668c0 20.41196-13.607973 34.019934-34.019934 34.019933s-34.019934-13.607973-34.019933-34.019933v-102.059801c0-20.41196 13.607973-34.019934 34.019933-34.019934s34.019934 13.607973 34.019934 34.019934v102.059801z"  /></svg>