<svg class="svg-icon" style="width: 1em; height: 1em;vertical-align: middle;fill: currentColor;overflow: hidden;" viewBox="0 0 1024 1024" version="1.1" xmlns="http://www.w3.org/2000/svg"><path d="M880.496 420.134c-6.944-20.051-24.536-34.461-45.832-37.615l-188.68-28.066-82-170.249C554.551 164.644 534.153 152 512.018 152s-42.562 12.644-51.995 32.204l-82 170.249-188.651 28.066c-21.353 3.154-38.917 17.563-45.832 37.615-6.915 20.051-1.765 41.897 13.368 57l138.364 138.103-32.059 191.574c-3.559 21.064 5.7 42.62 23.581 54.975 17.65 12.095 41.752 13.454 60.82 3.241l164.404-88.539 164.433 88.539A58.712 58.712 0 0 0 704.17 872c11.863 0 23.292-3.53 33.072-10.243 18.142-12.5 27.169-33.535 23.581-54.917l-32.088-191.603 138.393-138.103c15.075-15.103 20.225-36.949 13.368-57zM356.67 622.76c2.951-17.534-2.864-35.56-15.567-48.233L207.398 441.053l182.228-27.14c18.981-2.836 35.184-14.641 43.315-31.567l79.077-163.999 79.048 164.028c8.159 16.927 24.363 28.703 43.286 31.538l182.286 27.14-133.705 133.474c-12.731 12.644-18.547 30.67-15.625 48.233l30.989 184.919-158.56-85.269c-8.42-4.572-17.997-7.002-27.748-7.002-9.693 0-19.27 2.43-27.748 7.002L325.71 807.679l30.96-184.919z" fill="#e4eb1c" /></svg>