<svg class="svg-icon" style="width: 1em; height: 1em;vertical-align: middle;fill: currentColor;overflow: hidden;" viewBox="0 0 1024 1024" version="1.1" xmlns="http://www.w3.org/2000/svg"><path d="M748.278519 184.32l-42.951111 0c-11.851852 0-25.505185 10.24-25.505185 22.376296 0 11.946667 13.653333 18.394074 25.505185 18.394074l42.951111 0c25.505185 0 48.64 20.48 48.64 46.554074l0 502.139259c0 25.979259-22.945185 49.398519-48.64 49.398519L286.814815 823.182222c-25.505185 0-59.543704-23.324444-59.543704-49.398519L227.271111 271.739259c0-25.979259 13.558519-49.398519 48.64-49.398519l53.854815 0c11.851852 0 19.247407-6.447407 19.247407-18.394074 0-12.136296-7.395556-19.531852-19.247407-19.531852l-54.044444 0c-60.207407 0-85.712593 38.115556-85.712593 88.177778l0 496.64c0 53.854815 31.857778 91.97037 90.263704 91.97037l463.454815 0c58.405926 0 90.263704-31.573333 90.263704-91.97037L833.991111 272.497778C834.180741 222.435556 803.934815 184.32 748.278519 184.32L748.278519 184.32M329.576296 381.060741c0 10.145185 10.05037 18.962963 21.807407 18.962963l322.085926 0c11.851852 0 21.807407-8.628148 21.807407-18.962963s-10.05037-18.962963-21.807407-18.962963L351.573333 362.097778C339.626667 362.097778 329.576296 370.915556 329.576296 381.060741L329.576296 381.060741M672.616296 482.891852 351.573333 482.891852c-11.851852 0-21.807407 8.628148-21.807407 18.962963 0 10.145185 10.05037 18.962963 21.807407 18.962963l322.085926 0c11.851852 0 21.807407-8.628148 21.807407-18.962963C694.613333 490.761481 684.562963 482.891852 672.616296 482.891852L672.616296 482.891852M672.616296 613.831111 351.573333 613.831111c-11.851852 0-21.807407 8.628148-21.807407 18.962963s10.05037 18.962963 21.807407 18.962963l322.085926 0c11.851852 0 21.807407-8.628148 21.807407-18.962963C694.613333 621.700741 684.562963 613.831111 672.616296 613.831111L672.616296 613.831111M438.234074 229.451852l149.617778 0c17.256296 0 31.857778-13.179259 31.857778-28.444444s-14.601481-28.444444-32.805926-28.444444L438.234074 172.562963c-18.204444 0-32.805926 13.179259-32.805926 28.444444C405.238519 216.272593 420.02963 229.451852 438.234074 229.451852L438.234074 229.451852M438.234074 229.451852"  /></svg>